<svg width="48" height="48" viewBox="0 0 48 48" fill="none" xmlns="http://www.w3.org/2000/svg">
<path d="M0 8C0 3.58172 3.58172 0 8 0H40C44.4183 0 48 3.58172 48 8V40C48 44.4183 44.4183 48 40 48H8C3.58172 48 0 44.4183 0 40V8Z" fill="#F1F1F1"/>
<path d="M7.86902 15.501C7.48306 14.8344 7.96411 14 8.73445 14H9.92345C10.2803 14 10.6101 14.1901 10.7889 14.4989L20.631 31.499C21.0169 32.1656 20.5359 33 19.7656 33H18.5766C18.2197 33 17.8899 32.8098 17.7111 32.501L7.86902 15.501Z" fill="#062B04"/>
<path d="M25.869 15.501C25.4831 14.8344 25.9641 14 26.7344 14H27.9234C28.2803 14 28.6101 14.1901 28.7889 14.499L38.631 31.499C39.0169 32.1656 38.5359 33 37.7656 33H36.5766C36.2197 33 35.8899 32.8099 35.7111 32.501L25.869 15.501Z" fill="#062B04"/>
<path d="M25.2562 14.6476C25.4029 14.258 25.7757 14 26.192 14H27.0385C27.7417 14 28.2253 14.7067 27.9705 15.3622L21.3633 32.3622C21.2139 32.7467 20.8437 33 20.4312 33H19.7912C19.0925 33 18.6092 32.3016 18.8554 31.6476L25.2562 14.6476Z" fill="#062B04"/>
</svg>
